<?xml version="1.0" encoding="UTF-8"?>
<svg version="1.1" xmlns="http://www.w3.org/2000/svg" width="173" height="173">
<path d="M0 0 C57.09 0 114.18 0 173 0 C173 57.09 173 114.18 173 173 C115.91 173 58.82 173 0 173 C0 115.91 0 58.82 0 0 Z " fill="#100F0E" transform="translate(0,0)"/>
<path d="M0 0 C57.09 0 114.18 0 173 0 C173 57.09 173 114.18 173 173 C115.91 173 58.82 173 0 173 C0 115.91 0 58.82 0 0 Z M7 9 C7 59.49 7 109.98 7 162 C59.47 162 111.94 162 166 162 C166 111.51 166 61.02 166 9 C113.53 9 61.06 9 7 9 Z " fill="#161514" transform="translate(0,0)"/>
<path d="M0 0 C52.47 0 104.94 0 159 0 C159 50.49 159 100.98 159 153 C106.53 153 54.06 153 0 153 C0 102.51 0 52.02 0 0 Z M2 2 C2 51.17 2 100.34 2 151 C53.15 151 104.3 151 157 151 C157 101.83 157 52.66 157 2 C105.85 2 54.7 2 2 2 Z " fill="#DBD9D2" transform="translate(7,9)"/>
<path d="M0 0 C2.97 0 5.94 0 9 0 C9.25394531 0.85722656 9.50789063 1.71445312 9.76953125 2.59765625 C10.11371094 3.74105469 10.45789062 4.88445312 10.8125 6.0625 C11.14894531 7.18785156 11.48539063 8.31320313 11.83203125 9.47265625 C12.79552028 12.38245758 13.91927511 15.10975501 15.15454102 17.90893555 C17.49873431 23.70680316 19.23292723 29.76603169 21.12695312 35.72265625 C21.46791016 36.77066406 21.80886719 37.81867188 22.16015625 38.8984375 C22.46574463 39.85411621 22.77133301 40.80979492 23.08618164 41.79443359 C23.78676033 44.16635131 23.78676033 44.16635131 26 45 C26.30703857 44.15405273 26.61407715 43.30810547 26.93041992 42.43652344 C28.09306094 39.23745936 29.25824448 36.03934368 30.42504883 32.84179688 C30.92538732 31.46911028 31.42476856 30.09607431 31.9230957 28.72265625 C34.77817648 20.85608927 37.72537217 13.06372053 41.01293945 5.36425781 C42.06802151 2.9187312 42.06802151 2.9187312 43 0 C45.64 0 48.28 0 51 0 C50.36002155 2.7259079 49.57038252 5.31399409 48.58886719 7.93554688 C48.16272125 9.07824036 48.16272125 9.07824036 47.72796631 10.24401855 C47.26707611 11.46901062 47.26707611 11.46901062 46.796875 12.71875 C46.47720764 13.57247192 46.15754028 14.42619385 45.82818604 15.30578613 C45.15004496 17.11506931 44.47079744 18.92393811 43.79052734 20.73242188 C42.76465065 23.46103244 41.74339439 26.19133868 40.72265625 28.921875 C37.31202072 38.02106595 33.84909421 47.07522746 30 56 C26.7 56 23.4 56 20 56 C19.75765625 55.17757812 19.5153125 54.35515625 19.265625 53.5078125 C17.44235407 47.43491779 15.49458111 41.51634268 13.06640625 35.66015625 C11.78734855 32.46953978 10.64348101 29.24161131 9.5 26 C7.75383483 21.0561029 5.89421816 16.18582744 3.9140625 11.33203125 C2.4527255 7.60374838 1.22917361 3.81043819 0 0 Z " fill="#EAE1D4" transform="translate(39,60)"/>
<path d="M0 0 C1.98 0 3.96 0 6 0 C4.6240602 4.75324658 2.5847038 8.96679361 0.31640625 13.33984375 C-0.93842546 15.87557193 -2.03991813 18.4517828 -3.14086914 21.05688477 C-5.13544433 25.56805951 -7.44894279 29.93257393 -9.68359375 34.328125 C-11.38228833 37.69119711 -13.01507706 41.03517981 -14.5 44.5 C-16.66785903 49.55833773 -19.19045336 54.42412608 -21.68359375 59.328125 C-23.95708239 63.82917322 -26.05346 68.34829866 -28 73 C-28.65288627 74.34013497 -29.31225595 75.67741528 -30 77 C-31.98 77 -33.96 77 -36 77 C-29.31448055 60.01167522 -21.33313996 43.5212761 -13.10766602 27.234375 C-8.57920158 18.23392485 -4.30469877 9.10895517 0 0 Z " fill="#ABD35F" transform="translate(127,39)"/>
<path d="M0 0 C2 1.8125 2 1.8125 4 4 C4 7.48961209 3.09620626 9.11480295 1.5 12.1875 C1.0359375 13.08855469 0.571875 13.98960938 0.09375 14.91796875 C-0.2671875 15.60503906 -0.628125 16.29210937 -1 17 C-1.66 16.34 -2.32 15.68 -3 15 C-3.66 15.66 -4.32 16.32 -5 17 C-5.66 17 -6.32 17 -7 17 C-5.24009216 11.08030998 -2.60305395 5.58365008 0 0 Z " fill="#A4CC58" transform="translate(108,78)"/>
<path d="M0 0 C1.98 0 3.96 0 6 0 C4.78172689 4.02967261 3.52453645 7.60158555 1 11 C-1.1015625 11.63671875 -1.1015625 11.63671875 -3 12 C-2.69106068 10.3743193 -2.3777305 8.74947252 -2.0625 7.125 C-1.88847656 6.22007813 -1.71445313 5.31515625 -1.53515625 4.3828125 C-1 2 -1 2 0 0 Z " fill="#B0D467" transform="translate(127,39)"/>
<path d="M0 0 C0.66 0.33 1.32 0.66 2 1 C1.54979057 6.85272256 -1.03839227 11.08220119 -4 16 C-4.66 14.68 -5.32 13.36 -6 12 C-5.01 12 -4.02 12 -3 12 C-3.66 11.01 -4.32 10.02 -5 9 C-4.625 5.8125 -4.625 5.8125 -4 3 C-3.01 2.67 -2.02 2.34 -1 2 C-0.67 1.34 -0.34 0.68 0 0 Z " fill="#BAE462" transform="translate(104,92)"/>
<path d="M0 0 C1.32 0 2.64 0 4 0 C4.125 2.875 4.125 2.875 4 6 C3.34 6.66 2.68 7.32 2 8 C1.67 7.34 1.34 6.68 1 6 C0.34 6.66 -0.32 7.32 -1 8 C-1.66 8 -2.32 8 -3 8 C-1.125 2.25 -1.125 2.25 0 0 Z " fill="#B1DC59" transform="translate(104,87)"/>
<path d="M0 0 C1.32 0 2.64 0 4 0 C3.39301257 4.12751449 1.96189209 7.3321148 0 11 C-2 9 -2 9 -2.01171875 7.08984375 C-1.11111111 1.11111111 -1.11111111 1.11111111 0 0 Z " fill="#BDE965" transform="translate(119,59)"/>
<path d="M0 0 C0.66 0.99 1.32 1.98 2 3 C0.68 5.31 -0.64 7.62 -2 10 C-2.99 9.67 -3.98 9.34 -5 9 C-4.67 7.35 -4.34 5.7 -4 4 C-3.01 3.67 -2.02 3.34 -1 3 C-0.67 2.01 -0.34 1.02 0 0 Z " fill="#BDEA66" transform="translate(114,73)"/>
<path d="M0 0 C1 3 1 3 -0.1875 5.625 C-2 8 -2 8 -4.1875 8.8125 C-4.785625 8.874375 -5.38375 8.93625 -6 9 C-5.67 7.02 -5.34 5.04 -5 3 C-3.02 3.495 -3.02 3.495 -1 4 C-0.67 2.68 -0.34 1.36 0 0 Z " fill="#C1ED6A" transform="translate(130,42)"/>
<path d="M0 0 C1.5 1.375 1.5 1.375 3 3 C3 3.66 3 4.32 3 5 C2.01 5 1.02 5 0 5 C-0.66 6.32 -1.32 7.64 -2 9 C-2.33 8.34 -2.66 7.68 -3 7 C-2.06421005 4.64018187 -1.06652192 2.30368736 0 0 Z " fill="#A2C855" transform="translate(98,99)"/>
<path d="M0 0 C0.66 0.33 1.32 0.66 2 1 C1.67 2.65 1.34 4.3 1 6 C-0.32 6 -1.64 6 -3 6 C-2.42655063 3.13275314 -2.1385485 2.1385485 0 0 Z " fill="#C4F06C" transform="translate(104,92)"/>
<path d="M0 0 C1.47177418 3.82661288 0.57016757 6.31010622 -1 10 C-1.96715918 11.03179606 -2.96225307 12.0392288 -4 13 C-3.52140759 11.39566191 -3.04210442 9.79153584 -2.5625 8.1875 C-2.29566406 7.29417969 -2.02882813 6.40085937 -1.75390625 5.48046875 C-1.19612127 3.64526945 -0.60655425 1.81966274 0 0 Z " fill="#B9B1A3" transform="translate(73,83)"/>
<path d="M0 0 C0.33 0.99 0.66 1.98 1 3 C-0.3125 5.1875 -0.3125 5.1875 -2 7 C-2.66 7 -3.32 7 -4 7 C-3.39816251 4.97954558 -2.72693904 2.97888961 -2 1 C-1.34 0.67 -0.68 0.34 0 0 Z " fill="#A8D25E" transform="translate(105,88)"/>
</svg>
